<svg xmlns="http://www.w3.org/2000/svg" width="1600" height="520" viewBox="0 0 1600 520" role="img" aria-label="RoleFit IQ README header">
<rect width="1600" height="520" rx="40" fill="#050505"/>
<rect x="36" y="36" width="1528" height="448" rx="28" fill="#F3EFE6"/>
<g transform="translate(96 86)"><svg width="92" height="92" viewBox="0 0 92 92">

<rect x="12.88" y="12.88" width="13.69" height="13.69" rx="3.97" fill="#050505"/><rect x="34.96" y="12.88" width="13.69" height="13.69" rx="3.97" fill="#050505"/><rect x="57.04" y="12.88" width="13.69" height="13.69" rx="3.97" fill="#050505"/><rect x="12.88" y="34.96" width="13.69" height="13.69" rx="3.97" fill="#050505"/><rect x="34.96" y="34.96" width="13.69" height="13.69" rx="3.97" fill="#050505"/><rect x="57.04" y="34.96" width="13.69" height="13.69" rx="3.97" fill="#050505"/><rect x="12.88" y="57.04" width="13.69" height="13.69" rx="3.97" fill="#E97022"/><rect x="34.96" y="57.04" width="13.69" height="13.69" rx="3.97" fill="#E97022"/>
</svg></g>
<text x="220" y="142" fill="#050505" font-family="Inter, Geist, Arial, sans-serif" font-size="66" font-weight="800" letter-spacing="-2">RoleFit IQ</text>
<text x="224" y="188" fill="#6F6A62" font-family="'Geist Mono', 'IBM Plex Mono', 'JetBrains Mono', monospace" font-size="17" letter-spacing="2">RAG ANALYSIS / GROUNDED CITATIONS / CV-JD COMPARISON</text>
<text x="96" y="330" fill="#050505" font-family="Inter, Geist, Arial, sans-serif" font-size="92" font-weight="800" letter-spacing="-3">Evidence-first career intelligence.</text>
<text x="100" y="390" fill="#171717" font-family="Inter, Geist, Arial, sans-serif" font-size="30">Understand your fit before you apply.</text>
<text x="1310" y="152" fill="#6F6A62" font-family="'Geist Mono', 'IBM Plex Mono', 'JetBrains Mono', monospace" font-size="14" letter-spacing="1">BUILD 2026</text>
<text x="1308" y="178" fill="#6F6A62" font-family="'Geist Mono', 'IBM Plex Mono', 'JetBrains Mono', monospace" font-size="14" letter-spacing="1">MADE IN CARDIFF</text>
<rect x="36" y="404" width="1528" height="20" fill="#F2B12D"/>
<rect x="36" y="424" width="1528" height="20" fill="#E97022"/>
<rect x="36" y="444" width="1528" height="20" fill="#D94132"/>
<rect x="36" y="464" width="1528" height="20" fill="#B91F4A"/>
<rect x="36" y="484" width="1528" height="0" fill="#6C114F"/>
</svg>